<?xml version="1.0" encoding="utf-8"?>
<!-- Generator: Adobe Illustrator 19.0.0, SVG Export Plug-In . SVG Version: 6.00 Build 0)  -->
<svg version="1.1" id="Layer_1" xmlns="http://www.w3.org/2000/svg" xmlns:xlink="http://www.w3.org/1999/xlink" x="0px" y="0px"
	 viewBox="-485 486.5 28.5 28.5" style="enable-background:new -485 486.5 28.5 28.5;" xml:space="preserve">
<style type="text/css">
	.st0{fill:#FFFFFF;}
</style>
<path id="Path_8757" class="st0" d="M-470.8,486.5c-7.9,0-14.2,6.4-14.2,14.2c0,7.9,6.4,14.2,14.2,14.2c7.9,0,14.2-6.4,14.2-14.2
	C-456.5,492.9-462.9,486.5-470.8,486.5z M-467.2,501.3h-2.3v8.3h-3.4v-8.3h-1.6v-2.9h1.6v-1.9c-0.1-1.8,1.2-3.3,2.9-3.5
	c0.2,0,0.3,0,0.5,0l2.5,0v2.8h-1.8c-0.4,0-0.7,0.3-0.7,0.7c0,0,0,0.1,0,0.1v1.7h2.6L-467.2,501.3z"/>
</svg>
