<?xml version="1.0" encoding="utf-8"?>
<!-- Generator: Adobe Illustrator 19.0.0, SVG Export Plug-In . SVG Version: 6.00 Build 0)  -->
<svg version="1.1" id="Layer_1" xmlns="http://www.w3.org/2000/svg" xmlns:xlink="http://www.w3.org/1999/xlink" x="0px" y="0px"
	 viewBox="-485 486.5 28.5 28.5" style="enable-background:new -485 486.5 28.5 28.5;" xml:space="preserve">
<style type="text/css">
	.st0{fill:#FFFFFF;}
</style>
<path id="linkedin" class="st0" d="M-470.8,486.5c-7.9,0-14.2,6.4-14.2,14.2c0,7.9,6.4,14.2,14.2,14.2c7.9,0,14.2-6.4,14.2-14.2
	C-456.5,492.9-462.9,486.5-470.8,486.5z M-474.9,508h-3.5v-10.4h3.5V508z M-476.6,496.2L-476.6,496.2c-1,0.1-1.9-0.7-2-1.7
	c-0.1-1,0.7-1.9,1.7-1.9c0.1,0,0.2,0,0.3,0c1-0.1,1.9,0.6,2,1.6c0.1,1-0.6,1.9-1.6,2C-476.4,496.2-476.5,496.2-476.6,496.2z
	 M-462.4,508h-3.5v-5.6c0-1.4-0.5-2.4-1.8-2.4c-0.8,0-1.5,0.5-1.8,1.3c-0.1,0.3-0.1,0.6-0.1,0.8v5.8h-3.5c0,0,0-9.5,0-10.4h3.5v1.5
	c0.6-1.1,1.8-1.8,3.1-1.7c2.3,0,4,1.5,4,4.7L-462.4,508z"/>
</svg>
