<?xml version="1.0" encoding="utf-8"?>
<!-- Generator: Adobe Illustrator 19.0.0, SVG Export Plug-In . SVG Version: 6.00 Build 0)  -->
<svg version="1.1" id="Group_204" xmlns="http://www.w3.org/2000/svg" xmlns:xlink="http://www.w3.org/1999/xlink" x="0px" y="0px"
	 viewBox="-485 486.5 28.5 28.5" style="enable-background:new -485 486.5 28.5 28.5;" xml:space="preserve">
<style type="text/css">
	.st0{fill:#FFFFFF;}
</style>
<path id="Path_8758" class="st0" d="M-470.8,486.5c-7.9,0-14.2,6.4-14.2,14.2c0,7.9,6.4,14.2,14.2,14.2c7.9,0,14.2-6.4,14.2-14.2
	C-456.5,492.9-462.9,486.5-470.8,486.5z M-465.2,497.9l0,0.4c0,4.5-3.6,8.1-8,8.1c0,0-0.1,0-0.1,0c-1.6,0-3.1-0.4-4.4-1.3
	c0.2,0,0.5,0,0.7,0c1.3,0,2.5-0.4,3.6-1.2c-1.2,0-2.3-0.8-2.7-2c0.2,0,0.4,0.1,0.5,0.1c0.3,0,0.5,0,0.8-0.1
	c-1.3-0.3-2.3-1.4-2.3-2.8v0c0.4,0.2,0.8,0.3,1.3,0.4c-0.8-0.5-1.3-1.4-1.3-2.4c0-0.5,0.1-1,0.4-1.4c1.5,1.8,3.6,2.9,5.9,3
	c0-0.2-0.1-0.4-0.1-0.7c0-1.6,1.3-2.9,2.9-2.9l0,0c0.8,0,1.5,0.3,2.1,0.9c0.6-0.1,1.3-0.4,1.8-0.7c-0.2,0.7-0.7,1.2-1.3,1.6
	c0.6-0.1,1.1-0.2,1.6-0.5C-464.2,497-464.7,497.5-465.2,497.9L-465.2,497.9z"/>
</svg>
